<?xml version="1.0" standalone="no"?>
<!DOCTYPE svg PUBLIC "-//W3C//DTD SVG 20010904//EN"
 "http://www.w3.org/TR/2001/REC-SVG-20010904/DTD/svg10.dtd">
<svg version="1.0" xmlns="http://www.w3.org/2000/svg"
 width="40mm" height="40mm" viewBox="0 0 4000.000000 4000.000000"
 preserveAspectRatio="xMidYMid meet">
<metadata>
Created by potrace 1.16, written by Peter Selinger 2001-2019
</metadata>
<g transform="translate(0.000000,4000.000000) scale(0.100000,-0.100000)"
fill="#000000" stroke="none">
<path d="M19422 39989 c-1912 -55 -3832 -390 -5647 -986 -2575 -845 -4926
-2186 -6965 -3973 -583 -511 -1329 -1257 -1840 -1840 -1650 -1883 -2928 -4045
-3773 -6385 -958 -2651 -1343 -5435 -1142 -8250 281 -3927 1736 -7717 4159
-10830 543 -698 981 -1192 1650 -1861 669 -669 1163 -1107 1861 -1650 2986
-2324 6594 -3759 10355 -4118 527 -51 885 -72 1477 -88 1114 -29 2332 50 3482
228 3644 561 7048 2109 9866 4488 442 373 741 650 1231 1140 490 490 767 789
1140 1231 1530 1813 2725 3880 3527 6100 958 2651 1343 5435 1142 8250 -281
3927 -1736 7717 -4159 10830 -543 698 -981 1192 -1650 1861 -669 669 -1163
1107 -1861 1650 -3660 2848 -8214 4337 -12853 4203z m1533 -408 c1457 -86
2603 -260 3920 -596 4276 -1090 8086 -3627 10762 -7165 2290 -3028 3656 -6675
3917 -10455 36 -519 41 -672 41 -1365 0 -693 -5 -846 -41 -1365 -127 -1851
-530 -3715 -1177 -5455 -1308 -3515 -3571 -6559 -6557 -8817 -3028 -2290
-6675 -3656 -10455 -3917 -519 -36 -672 -41 -1365 -41 -693 0 -846 5 -1365 41
-1851 127 -3715 530 -5455 1177 -3515 1308 -6559 3571 -8817 6557 -2290 3028
-3656 6675 -3917 10455 -36 519 -41 672 -41 1365 0 693 5 846 41 1365 127
1851 530 3715 1177 5455 1308 3515 3571 6559 6557 8817 3028 2290 6668 3654
10455 3918 181 12 455 27 750 39 170 7 1399 -3 1570 -13z"/>
<path d="M19445 38989 c-3125 -92 -6180 -954 -8889 -2506 -2933 -1681 -5358
-4106 -7039 -7039 -522 -911 -962 -1851 -1332 -2849 -1010 -2721 -1384 -5686
-1079 -8565 317 -3009 1324 -5852 2967 -8385 487 -750 1056 -1501 1656 -2185
503 -573 1158 -1228 1731 -1731 1753 -1538 3752 -2730 5945 -3544 2721 -1010
5686 -1384 8565 -1079 2637 278 5154 1088 7440 2392 1251 713 2379 1538 3469
2536 240 219 868 847 1087 1087 1706 1864 2981 3945 3849 6284 608 1639 992
3386 1125 5125 89 1167 74 2312 -46 3440 -317 3009 -1324 5852 -2967 8385
-487 750 -1056 1501 -1656 2185 -503 573 -1158 1228 -1731 1731 -1753 1538
-3752 2730 -5945 3544 -2273 844 -4723 1246 -7150 1174z m1180 -189 c149 -6
349 -15 445 -20 5926 -341 11330 -3445 14609 -8390 953 -1436 1708 -3008 2232
-4645 1342 -4188 1177 -8705 -466 -12780 -1422 -3528 -3880 -6539 -7055 -8644
-3380 -2242 -7416 -3334 -11460 -3101 -5926 341 -11330 3445 -14609 8390
-2314 3489 -3397 7658 -3075 11835 417 5417 3157 10389 7515 13637 2131 1589
4582 2711 7169 3282 1131 250 2246 392 3405 435 314 12 984 12 1290 1z"/>
<path d="M23693 37665 c12 -123 70 -202 179 -243 171 -64 317 -21 392 118 15
28 26 53 24 56 -3 2 -30 9 -62 15 l-57 12 -34 -41 c-43 -49 -89 -67 -153 -57
-87 13 -138 55 -157 132 -13 50 -15 51 -99 67 l-39 7 6 -66z"/>
<path d="M19793 37472 l6 -229 -157 -6 c-86 -4 -200 -7 -253 -7 l-96 0 -6 128
c-4 70 -7 171 -7 225 l0 97 -95 0 -95 0 0 -52 c0 -43 29 -1043 30 -1043 0 0
42 1 94 3 l93 3 -3 120 c-2 65 -6 173 -8 239 l-3 120 31 4 c17 3 131 7 252 9
l221 5 7 -67 c3 -36 6 -140 6 -231 0 -91 4 -170 8 -177 6 -9 32 -11 95 -6 l87
6 0 76 c0 42 -5 286 -12 544 l-12 467 -94 0 -95 0 6 -228z"/>
<path d="M20536 37658 c-8 -48 -60 -1047 -55 -1052 2 -2 45 -6 94 -7 l90 -4
13 235 c7 129 15 236 17 239 8 7 489 -20 497 -28 4 -4 2 -112 -6 -241 -7 -129
-13 -236 -12 -236 0 -1 42 -4 93 -7 l92 -6 5 62 c13 137 57 1010 52 1023 -4
11 -27 14 -94 14 l-89 0 -7 -127 c-3 -71 -9 -172 -13 -225 l-6 -98 -31 1 c-82
1 -467 26 -471 31 -3 2 1 102 7 221 6 119 8 220 4 224 -4 5 -45 10 -91 11
l-84 4 -5 -34z"/>
<path d="M18050 37610 c-222 -28 -383 -183 -421 -405 -7 -42 -10 -111 -6 -176
9 -179 64 -324 158 -416 97 -95 196 -134 343 -135 164 0 302 49 392 141 50 51
110 165 120 227 l6 40 -98 0 -97 -1 -20 -59 c-27 -80 -91 -146 -172 -176 -133
-49 -296 9 -368 132 -27 47 -70 168 -62 176 4 4 754 91 793 92 31 0 -18 224
-70 322 -36 68 -135 165 -199 196 -96 46 -178 58 -299 42z m172 -166 c67 -22
123 -75 158 -149 55 -116 70 -106 -227 -138 -142 -16 -275 -31 -295 -34 l-38
-6 0 45 c0 84 26 146 88 207 34 33 75 63 102 73 57 21 154 22 212 2z"/>
<path d="M22255 37550 c-256 -56 -394 -251 -412 -580 -15 -294 137 -497 410
-544 274 -48 494 80 575 334 46 141 57 332 27 437 -50 172 -173 294 -340 338
-71 18 -209 26 -260 15z m221 -171 c76 -29 134 -84 170 -162 27 -57 29 -71 29
-177 -1 -227 -67 -368 -207 -442 -61 -31 -183 -32 -250 -1 -66 30 -132 102
-159 171 -53 140 -16 396 76 516 76 100 220 140 341 95z"/>
<path d="M16954 37436 c-33 -7 -65 -15 -71 -19 -6 -4 5 -83 33 -229 24 -123
44 -231 44 -241 0 -25 -164 -102 -250 -118 -87 -16 -160 4 -213 57 -44 44 -58
84 -97 278 -16 82 -32 151 -34 153 -2 3 -43 -3 -90 -13 -71 -14 -86 -20 -86
-35 0 -27 49 -275 65 -330 36 -123 118 -220 221 -258 56 -22 171 -29 229 -16
62 14 162 49 224 77 34 16 64 28 66 26 2 -2 20 -93 41 -203 21 -110 41 -204
45 -208 7 -9 150 11 171 24 8 5 -16 150 -86 516 -54 279 -100 518 -103 531 -6
25 -17 26 -109 8z"/>
<path d="M23327 36838 c-65 -288 -117 -528 -117 -534 0 -6 44 -20 98 -32 l97
-21 75 77 c170 176 593 602 595 600 1 -2 -37 -178 -86 -393 -48 -214 -86 -391
-85 -393 10 -9 171 -41 177 -35 7 7 239 1027 239 1049 0 6 -44 20 -97 33 l-98
22 -80 -83 c-244 -253 -587 -599 -590 -596 -2 1 37 179 85 393 49 215 87 392
84 394 -4 4 -155 41 -170 41 -6 0 -63 -233 -127 -522z"/>
<path d="M15592 37142 l-92 -25 -24 -81 c-14 -45 -73 -251 -133 -458 -59 -208
-110 -378 -113 -378 -3 0 -50 161 -104 358 -55 196 -105 371 -112 389 l-12 31
-82 -23 c-45 -13 -84 -25 -87 -29 -7 -6 275 -1027 288 -1040 6 -7 185 35 194
46 1 2 30 100 64 218 139 477 200 682 205 688 6 5 14 -23 122 -413 53 -192 98
-352 100 -354 1 -2 41 7 88 19 55 15 86 28 86 37 0 20 -281 1027 -288 1034 -4
4 -49 -5 -100 -19z"/>
<path d="M14188 36719 c-43 -17 -78 -34 -78 -39 0 -4 34 -99 75 -210 42 -112
72 -207 68 -211 -10 -9 -443 -169 -458 -169 -7 0 -47 95 -90 210 -43 116 -80
210 -84 210 -3 -1 -42 -16 -86 -33 -55 -23 -79 -38 -77 -47 6 -27 365 -995
371 -1002 9 -10 171 52 171 65 0 7 -36 109 -80 226 -44 118 -77 218 -73 221 9
8 450 170 463 170 4 0 45 -101 91 -224 l83 -224 88 31 c49 18 87 36 85 42 -52
157 -375 1015 -382 1014 -5 0 -45 -14 -87 -30z"/>
<path d="M25805 36656 c-85 -20 -147 -57 -216 -125 -53 -53 -76 -87 -117 -171
-56 -116 -92 -247 -92 -336 1 -167 75 -310 207 -396 109 -71 200 -99 328 -99
149 0 280 63 362 175 55 74 74 112 118 226 85 223 60 416 -72 563 -120 135
-344 205 -518 163z m282 -187 c62 -30 101 -69 139 -139 30 -55 27 -233 -5
-320 -74 -205 -179 -307 -326 -318 -113 -8 -209 39 -270 131 -74 112 -69 265
14 441 63 136 154 217 266 239 45 8 124 -6 182 -34z"/>
<path d="M26880 36225 c-16 -37 -30 -68 -30 -69 0 -2 72 -35 159 -75 l159 -73
-55 -121 c-31 -67 -118 -259 -194 -427 l-139 -305 82 -38 c45 -20 85 -34 88
-30 4 5 92 195 195 423 103 228 189 416 190 418 2 2 73 -29 159 -67 86 -39
158 -71 161 -71 10 0 65 134 58 140 -10 9 -761 351 -785 357 -14 4 -25 -10
-48 -62z"/>
<path d="M12660 36116 c-195 -58 -372 -182 -431 -301 -21 -43 -24 -64 -24
-152 0 -56 3 -104 7 -108 3 -4 44 5 91 20 l84 26 -1 72 c0 58 4 80 23 114 53
94 238 179 344 159 48 -9 102 -56 133 -117 23 -45 23 -49 6 -65 -26 -26 -147
-114 -232 -168 -131 -84 -148 -97 -195 -147 -100 -107 -126 -236 -71 -354 31
-69 64 -107 121 -141 93 -54 209 -53 339 6 125 55 209 133 276 253 l32 57 44
-49 44 -49 90 41 89 41 -48 46 c-59 57 -91 114 -229 410 -118 254 -131 279
-177 331 -55 63 -99 82 -189 86 -47 1 -100 -3 -126 -11z m343 -539 c42 -96 53
-164 38 -230 -39 -174 -267 -310 -401 -238 -80 42 -104 159 -47 232 27 34 48
51 222 174 50 35 104 77 120 94 17 16 32 30 35 30 3 1 18 -27 33 -62z"/>
<path d="M27877 35241 c-141 -258 -257 -473 -257 -478 0 -12 496 -278 555
-298 69 -24 169 -24 227 -2 56 22 131 98 161 165 32 70 29 161 -6 229 l-27 52
33 6 c79 18 143 71 189 158 18 33 23 59 23 117 -1 134 -51 199 -240 309 -144
84 -379 211 -391 211 -6 0 -126 -211 -267 -469z m582 120 c113 -73 148 -133
121 -204 -20 -49 -47 -74 -97 -88 -35 -9 -56 -10 -87 -1 -46 12 -299 145 -303
159 -3 8 84 176 124 241 l14 23 87 -47 c48 -26 111 -63 141 -83z m-296 -358
c198 -108 237 -147 237 -233 0 -50 -19 -89 -62 -125 -29 -24 -38 -27 -92 -23
-50 4 -83 17 -214 84 -85 44 -159 86 -164 94 -7 11 11 53 63 148 40 72 77 132
82 132 6 0 73 -35 150 -77z"/>
<path d="M11356 35449 c-70 -17 -174 -79 -227 -136 -39 -44 -54 -70 -71 -129
l-22 -73 -32 52 c-17 29 -37 51 -43 49 -24 -5 -123 -65 -128 -77 -4 -12 704
-1262 733 -1294 10 -11 25 -7 88 28 42 24 76 47 76 52 0 5 -56 107 -125 226
-68 119 -123 218 -121 220 2 2 25 -1 50 -8 187 -47 408 105 466 321 17 62 15
184 -5 260 -63 242 -247 455 -439 506 -57 15 -141 17 -200 3z m189 -191 c92
-48 186 -161 243 -295 37 -86 45 -123 44 -191 -2 -120 -67 -220 -170 -261 -48
-20 -166 -10 -222 19 -89 45 -181 164 -240 307 -74 184 -34 358 100 426 49 25
63 28 125 24 49 -3 85 -12 120 -29z"/>
<path d="M19620 35394 c-1139 -36 -2143 -168 -3197 -418 -1509 -359 -3006
-969 -4338 -1769 -2887 -1734 -5116 -4345 -6372 -7467 -589 -1464 -950 -3019
-1067 -4595 -31 -413 -40 -664 -40 -1145 0 -481 9 -732 40 -1145 117 -1576
478 -3131 1067 -4595 302 -750 672 -1496 1080 -2175 1734 -2887 4345 -5116
7467 -6372 1464 -589 3019 -950 4595 -1067 739 -55 1551 -55 2290 0 1576 117
3131 478 4595 1067 750 302 1496 672 2175 1080 2888 1734 5116 4345 6372 7467
589 1464 950 3019 1067 4595 55 739 55 1551 0 2290 -117 1576 -478 3131 -1067
4595 -302 750 -672 1496 -1080 2175 -1734 2888 -4345 5116 -7467 6372 -1592
640 -3244 1001 -5000 1093 -204 10 -939 20 -1120 14z m1140 -164 c1029 -57
1986 -199 2935 -436 3242 -811 6115 -2654 8208 -5264 1913 -2386 3070 -5321
3301 -8375 32 -422 40 -646 40 -1155 0 -509 -8 -733 -40 -1155 -231 -3054
-1388 -5989 -3301 -8375 -2093 -2610 -4966 -4453 -8208 -5264 -955 -239 -1887
-377 -2955 -438 -278 -15 -1202 -15 -1480 0 -1068 61 -2000 199 -2955 438
-3242 811 -6115 2654 -8208 5264 -1913 2386 -3070 5321 -3301 8375 -32 422
-40 646 -40 1155 0 509 8 733 40 1155 163 2161 791 4274 1836 6180 1393 2540
3493 4640 6033 6033 1906 1045 4013 1671 6180 1836 170 13 489 30 740 40 164
6 987 -4 1175 -14z"/>
<path d="M19202 34231 c-97 -33 -170 -127 -203 -261 -18 -73 -18 -342 0 -435
30 -152 79 -249 153 -302 59 -41 110 -56 193 -56 172 1 280 110 316 319 15 88
6 356 -16 443 -36 148 -121 261 -222 295 -61 21 -155 20 -221 -3z m215 -128
c84 -68 115 -186 117 -443 1 -202 -11 -255 -73 -320 -117 -123 -277 -43 -320
159 -21 97 -31 281 -21 376 15 143 41 200 115 247 47 30 133 21 182 -19z"/>
<path d="M20675 34217 c-127 -61 -193 -198 -217 -455 -28 -291 36 -488 179
-559 51 -25 69 -28 153 -28 112 0 151 16 219 90 85 93 121 219 128 460 5 153
3 178 -16 248 -26 96 -41 126 -88 178 -58 64 -103 82 -213 86 -84 4 -101 1
-145 -20z m178 -88 c52 -14 100 -60 128 -121 22 -49 24 -65 24 -228 -1 -333
-62 -484 -204 -498 -63 -6 -101 9 -145 59 -54 59 -70 127 -69 294 2 292 57
451 168 490 49 17 51 17 98 4z"/>
<path d="M17754 34085 c-145 -32 -223 -130 -243 -306 -19 -161 23 -408 93
-555 62 -132 151 -195 275 -197 165 -2 270 74 318 229 35 115 17 369 -38 544
-71 225 -217 327 -405 285z m124 -111 c98 -41 147 -136 187 -366 48 -270 17
-407 -102 -460 -115 -51 -224 34 -272 212 -49 180 -67 409 -40 491 18 53 58
99 103 120 50 23 76 24 124 3z"/>
<path d="M22199 34065 c-178 -57 -297 -345 -287 -691 3 -123 5 -134 36 -197
38 -76 84 -119 160 -147 60 -23 163 -26 225 -8 48 15 136 93 171 153 84 142
137 459 106 625 -13 69 -55 162 -88 193 -72 69 -227 103 -323 72z m195 -125
c20 -12 49 -43 64 -68 26 -45 27 -53 26 -177 -1 -240 -68 -472 -157 -539 -97
-73 -213 -41 -265 72 -21 46 -25 69 -24 148 0 195 59 430 129 523 54 70 152
88 227 41z"/>
<path d="M16236 33756 c-73 -31 -119 -74 -154 -146 -85 -174 14 -631 174 -795
69 -72 114 -90 219 -90 77 1 98 5 147 28 64 32 111 80 142 146 31 69 34 235 7
365 -42 200 -102 333 -192 426 -65 68 -99 83 -199 87 -73 3 -93 0 -144 -21z
m192 -105 c80 -41 132 -131 188 -323 63 -222 67 -337 12 -418 -39 -57 -72 -75
-138 -75 -111 0 -181 79 -244 275 -76 234 -89 400 -39 477 50 78 142 104 221
64z"/>
<path d="M23709 33749 c-62 -9 -123 -42 -174 -94 -108 -111 -205 -398 -206
-606 -1 -167 46 -258 165 -319 62 -31 77 -35 150 -35 65 0 90 5 126 23 121 63
210 209 269 440 61 236 40 413 -61 509 -63 61 -177 96 -269 82z m147 -134 c31
-18 50 -39 70 -81 24 -50 26 -62 21 -132 -10 -129 -63 -322 -120 -439 -92
-189 -267 -216 -349 -54 -17 34 -28 71 -28 96 0 129 84 422 151 525 71 110
161 140 255 85z"/>
<path d="M14877 33310 c-57 -15 -128 -54 -164 -92 -122 -127 -107 -355 43
-666 67 -138 156 -238 238 -265 103 -35 228 -12 319 57 49 37 94 129 102 209
18 172 -102 507 -232 648 -87 94 -202 135 -306 109z m129 -126 c55 -26 113
-99 165 -207 95 -201 138 -384 109 -471 -47 -143 -204 -167 -312 -48 -44 49
-123 208 -170 342 -28 83 -33 108 -33 195 0 90 2 103 24 133 13 19 38 43 55
53 38 23 115 25 162 3z"/>
<path d="M25052 33245 c-100 -47 -186 -155 -264 -337 -81 -188 -108 -365 -71
-478 52 -160 265 -252 418 -180 85 40 164 131 228 261 160 324 167 567 20 688
-89 73 -231 93 -331 46z m195 -96 c45 -16 91 -68 109 -121 13 -42 14 -59 4
-121 -16 -93 -59 -217 -120 -342 -81 -168 -154 -231 -255 -223 -69 6 -111 37
-142 106 -22 47 -24 62 -19 115 4 34 23 108 41 165 111 331 241 475 382 421z"/>
<path d="M26483 32640 c-164 -34 -339 -248 -435 -533 -58 -173 -38 -308 59
-398 172 -159 392 -108 551 129 173 257 232 494 158 640 -58 115 -208 188
-333 162z m152 -133 c44 -25 81 -81 90 -139 9 -53 -17 -146 -79 -273 -102
-212 -191 -323 -281 -351 -66 -21 -114 -13 -161 28 -64 56 -80 140 -48 249 38
129 185 383 262 450 71 63 147 75 217 36z"/>
<path d="M12670 32239 c-25 -16 -47 -34 -48 -39 -2 -6 46 -89 107 -185 61 -96
111 -176 111 -178 0 -11 -451 -288 -459 -283 -5 4 -58 83 -116 176 -59 94
-110 172 -114 174 -3 2 -32 -14 -63 -34 l-57 -38 280 -443 c155 -244 282 -445
284 -447 5 -5 115 68 115 77 0 4 -56 97 -126 206 -69 109 -123 203 -121 209 5
12 432 286 446 286 4 0 64 -88 132 -197 68 -108 127 -200 130 -206 4 -5 33 6
67 28 l61 37 -33 52 c-17 28 -144 228 -281 444 -136 215 -253 392 -259 391 -6
0 -31 -14 -56 -30z"/>
<path d="M27777 31869 c-27 -4 -74 -20 -105 -35 -156 -77 -377 -394 -413 -593
-21 -123 22 -235 118 -305 185 -136 391 -58 586 221 119 170 175 322 164 442
-15 171 -178 295 -350 270z m130 -128 c87 -40 121 -141 84 -252 -55 -165 -264
-442 -366 -485 -148 -61 -280 62 -239 224 42 162 259 459 375 512 55 25 92 25
146 1z"/>
<path d="M11187 31217 l-49 -43 136 -164 c75 -91 136 -167 135 -170 0 -8 -401
-335 -413 -337 -6 -1 -71 72 -145 162 l-134 164 -49 -40 c-26 -23 -50 -44 -53
-49 -2 -4 146 -190 331 -414 l336 -406 54 46 c48 41 53 49 41 63 -128 149
-297 363 -292 370 6 10 379 320 401 333 8 5 64 -56 163 -177 84 -101 155 -186
159 -189 9 -5 112 76 109 86 -5 16 -660 803 -671 805 -6 2 -33 -17 -59 -40z"/>
<path d="M28913 30952 c-153 -55 -354 -258 -456 -461 -41 -82 -42 -88 -42
-180 0 -82 4 -103 25 -144 50 -98 159 -167 266 -167 118 0 209 45 332 164 71
68 176 198 215 266 72 127 89 270 42 365 -28 58 -85 114 -150 147 -57 30 -164
34 -232 10z m207 -124 c55 -38 74 -71 78 -141 3 -54 0 -73 -23 -121 -62 -130
-282 -379 -376 -424 -62 -30 -144 -30 -189 1 -54 36 -73 70 -78 136 -4 51 0
69 25 123 68 143 275 372 386 427 58 29 134 28 177 -1z"/>
<path d="M9857 30022 l-47 -48 110 -483 c61 -266 109 -485 108 -487 -2 -1
-138 124 -302 278 l-298 281 -45 -45 -45 -45 383 -362 384 -361 49 49 49 49
-88 389 c-48 213 -97 432 -110 486 -12 53 -20 97 -16 97 3 -1 139 -126 301
-280 l295 -279 43 42 c23 23 42 44 42 48 0 7 -746 712 -759 717 -3 1 -28 -19
-54 -46z"/>
<path d="M29983 29920 c-89 -31 -193 -107 -309 -224 -166 -167 -222 -276 -212
-409 9 -109 71 -197 173 -248 60 -29 71 -31 143 -27 131 8 251 76 413 237 235
233 280 429 136 587 -69 76 -129 104 -222 103 -41 0 -91 -8 -122 -19z m202
-109 c105 -49 134 -150 75 -268 -54 -109 -280 -327 -401 -389 -90 -45 -199
-30 -247 36 -47 63 -46 151 3 237 37 64 276 299 348 342 107 63 156 72 222 42z"/>
<path d="M24787 21976 c-3 -8 -18 -23 -32 -32 -23 -15 -70 -18 -353 -25 -411
-9 -551 -32 -738 -118 -283 -132 -424 -332 -498 -705 -43 -215 -51 -321 -51
-676 1 -331 10 -490 41 -670 48 -278 177 -514 376 -688 131 -115 286 -174 506
-193 310 -28 562 41 736 203 254 234 365 482 383 853 24 518 -199 924 -599
1089 -123 51 -221 69 -378 69 -193 1 -332 -37 -474 -128 -74 -47 -188 -155
-243 -229 l-43 -58 0 50 c0 74 27 266 50 357 57 228 193 379 386 429 114 29
200 37 530 46 182 5 362 14 400 20 200 32 294 139 328 378 l6 42 -164 0 c-133
0 -165 -3 -169 -14z m-428 -1219 c147 -51 252 -149 327 -302 58 -121 83 -229
91 -395 13 -311 -63 -562 -225 -731 -117 -123 -234 -173 -402 -172 -289 1
-519 192 -602 498 -30 111 -33 435 -5 565 66 303 234 501 472 554 100 23 251
15 344 -17z"/>
<path d="M6960 21673 l0 -248 50 -275 c28 -151 50 -278 50 -282 0 -5 49 -8
110 -8 105 0 110 1 115 23 3 12 23 134 45 270 39 243 40 253 40 507 l0 260
-205 0 -205 0 0 -247z"/>
<path d="M7640 21683 l0 -238 50 -285 c27 -157 50 -288 50 -292 0 -5 50 -8
110 -8 61 0 110 2 110 4 0 2 22 134 50 293 l50 288 0 238 0 237 -210 0 -210 0
0 -237z"/>
<path d="M8810 20838 c-1 -596 -5 -1142 -10 -1213 -16 -240 -52 -330 -149
-382 -54 -28 -150 -31 -230 -7 -29 8 -54 14 -56 12 -8 -10 -64 -333 -57 -339
4 -3 45 -14 92 -25 103 -22 282 -25 360 -5 175 44 314 179 371 361 58 185 69
426 69 1483 l0 847 545 0 545 0 0 -1330 0 -1330 200 0 200 0 0 1505 0 1505
-940 0 -940 0 0 -1082z"/>
<path d="M31940 21672 l0 -248 50 -277 c28 -153 50 -280 50 -282 0 -3 49 -5
110 -5 105 0 110 1 115 23 3 12 23 135 45 273 39 245 40 256 40 507 l0 257
-205 0 -205 0 0 -248z"/>
<path d="M32620 21680 l0 -240 50 -284 c28 -156 50 -287 50 -290 0 -3 50 -6
110 -6 61 0 110 3 110 7 0 3 23 136 50 294 l50 288 0 235 0 236 -210 0 -210 0
0 -240z"/>
<path d="M14210 21130 c-321 -41 -535 -217 -640 -529 -11 -35 -18 -66 -15 -69
3 -3 79 -17 170 -32 l165 -26 45 92 c70 145 160 226 290 260 150 41 333 -15
408 -123 57 -83 74 -209 41 -306 -21 -63 -92 -140 -160 -173 -48 -23 -74 -28
-214 -37 l-160 -11 0 -138 0 -138 123 0 c241 -1 332 -26 415 -114 87 -92 119
-187 102 -305 -27 -192 -198 -323 -425 -323 -186 -1 -346 81 -447 229 -36 52
-78 149 -78 178 0 8 -4 16 -9 20 -9 5 -327 -58 -336 -67 -11 -11 40 -171 80
-253 101 -205 277 -331 530 -381 131 -26 379 -24 500 4 126 28 195 56 280 113
122 82 194 173 243 312 23 64 26 87 26 202 -1 113 -4 140 -27 210 -42 126
-125 231 -240 306 l-58 38 44 30 c56 38 142 132 168 182 70 137 63 325 -17
489 -28 56 -59 96 -123 161 -97 97 -181 145 -312 178 -88 22 -276 33 -369 21z"/>
<path d="M26285 21130 c-296 -25 -532 -125 -662 -282 -24 -29 -64 -93 -88
-143 -46 -94 -91 -235 -74 -235 9 0 280 -36 326 -44 20 -3 25 5 44 66 44 138
123 240 224 288 88 41 163 54 320 54 212 0 342 -40 436 -134 68 -68 90 -135
97 -287 l5 -121 -73 -22 c-107 -32 -286 -65 -540 -100 -124 -17 -261 -38 -305
-46 -361 -72 -586 -297 -602 -604 -10 -184 47 -339 168 -460 81 -81 175 -132
307 -167 83 -22 119 -25 252 -26 292 0 498 70 735 252 44 34 81 58 82 54 1 -4
9 -39 17 -78 8 -38 24 -96 36 -127 l21 -58 189 0 188 0 -33 78 c-65 151 -66
157 -75 907 -9 691 -11 733 -51 853 -75 225 -289 352 -645 382 -131 11 -166
11 -299 0z m622 -1282 c-9 -264 -49 -379 -172 -503 -128 -130 -298 -195 -510
-195 -68 0 -134 6 -170 15 -172 45 -275 168 -275 329 0 74 17 129 61 192 64
94 173 136 471 184 226 36 387 70 488 103 123 41 114 51 107 -125z"/>
<path d="M11300 20000 l0 -1090 198 0 197 0 510 825 c281 453 513 824 518 825
4 0 7 -371 7 -825 l0 -825 180 0 180 0 0 1090 0 1090 -197 0 -198 -1 -510
-829 c-280 -456 -513 -830 -517 -830 -5 0 -8 374 -8 830 l0 830 -180 0 -180 0
0 -1090z"/>
<path d="M15580 20000 l0 -1090 199 0 198 0 503 813 c277 446 509 819 516 827
12 12 14 -117 14 -813 l0 -827 180 0 180 0 0 1090 0 1090 -197 -2 -197 -3
-510 -829 -511 -829 -3 832 -2 831 -185 0 -185 0 0 -1090z"/>
<path d="M17940 20000 l0 -1090 180 0 180 0 0 485 0 485 515 0 515 0 0 -485 0
-485 185 0 185 0 0 1090 0 1090 -185 0 -185 0 0 -455 0 -455 -515 0 -515 0 0
455 0 455 -180 0 -180 0 0 -1090z"/>
<path d="M20260 20000 l0 -1090 185 0 185 0 0 940 0 940 440 0 440 0 0 150 0
150 -625 0 -625 0 0 -1090z"/>
<path d="M27860 20000 l0 -1090 180 0 180 0 0 485 0 485 515 0 515 0 0 -485 0
-485 185 0 185 0 0 1090 0 1090 -185 0 -185 0 0 -455 0 -455 -515 0 -515 0 0
455 0 455 -180 0 -180 0 0 -1090z"/>
<path d="M30180 20000 l0 -1090 180 0 180 0 0 506 0 507 57 -6 c80 -8 171 -56
229 -120 70 -78 121 -158 343 -539 l203 -348 198 0 199 0 -201 338 c-239 400
-297 489 -397 594 -84 90 -141 132 -219 164 -62 25 -66 18 43 79 116 66 171
146 284 415 117 276 123 281 298 288 l113 5 0 150 0 150 -132 -6 c-200 -10
-279 -36 -357 -119 -53 -55 -99 -140 -200 -366 -144 -325 -188 -394 -269 -428
-36 -15 -178 -34 -187 -25 -3 2 -5 215 -5 473 l0 468 -180 0 -180 0 0 -1090z"/>
<path d="M21650 20000 l0 -180 565 0 565 0 0 180 0 180 -565 0 -565 0 0 -180z"/>
<path d="M31157 13706 c-61 -22 -112 -61 -145 -111 -146 -221 -24 -447 343
-634 132 -68 197 -86 305 -86 79 0 102 4 137 22 57 31 108 85 141 152 23 47
27 69 27 136 -1 68 -5 88 -29 135 -57 109 -208 232 -401 326 -144 69 -287 92
-378 60z m174 -122 c122 -36 355 -171 440 -257 57 -56 81 -105 81 -162 0 -85
-62 -153 -153 -170 -134 -25 -538 206 -611 349 -52 101 -2 212 110 246 42 13
74 11 133 -6z"/>
<path d="M8585 13601 c-377 -108 -554 -436 -405 -748 51 -105 132 -188 235
-239 127 -63 290 -59 441 11 318 146 439 449 291 729 -39 75 -146 185 -210
215 -110 53 -240 65 -352 32z m292 -151 c70 -35 139 -105 174 -177 30 -63 37
-173 15 -241 -48 -143 -218 -280 -395 -318 -121 -25 -242 13 -321 103 -106
120 -126 253 -59 390 72 149 323 294 479 278 25 -3 73 -19 107 -35z"/>
<path d="M30355 12517 c-56 -27 -123 -94 -155 -157 -49 -97 -33 -215 47 -333
97 -144 361 -330 522 -367 79 -18 168 -8 232 26 57 32 129 117 149 180 20 60
9 170 -24 239 -61 126 -315 338 -481 401 -102 38 -222 43 -290 11z m211 -118
c79 -30 247 -145 344 -235 118 -112 152 -181 130 -263 -23 -85 -104 -139 -196
-128 -136 15 -469 258 -532 389 -39 79 -26 152 35 210 55 53 126 61 219 27z"/>
<path d="M9410 12034 c-212 -168 -396 -313 -409 -323 l-24 -18 43 -56 44 -56
36 27 c19 14 183 143 363 285 180 142 331 255 336 253 5 -3 81 -98 170 -211
l162 -205 27 19 c15 11 38 29 51 39 l24 19 -208 264 c-114 145 -213 265 -219
266 -6 1 -184 -135 -396 -303z"/>
<path d="M29499 11446 c-25 -6 -66 -27 -91 -45 -118 -84 -161 -222 -114 -359
57 -166 317 -420 503 -493 168 -65 335 4 410 168 37 80 30 175 -20 276 -96
193 -365 419 -545 456 -65 13 -84 13 -143 -3z m122 -116 c127 -35 397 -277
469 -419 28 -56 25 -152 -5 -193 -59 -78 -155 -95 -258 -43 -119 59 -324 251
-397 372 -30 49 -35 66 -35 118 0 52 4 67 29 99 30 40 94 75 136 76 14 0 41
-5 61 -10z"/>
<path d="M10300 10932 l-375 -370 47 -48 48 -49 82 80 c46 44 116 111 155 150
l73 69 142 -140 c173 -170 223 -199 333 -198 118 1 214 62 276 176 28 53 34
73 34 128 0 111 -28 154 -249 378 l-191 194 -375 -370z m631 -69 c46 -59 58
-110 39 -167 -25 -78 -103 -136 -182 -136 -65 0 -128 43 -258 174 l-115 116
135 135 135 135 103 -103 c57 -56 121 -125 143 -154z"/>
<path d="M28510 10471 c-89 -18 -185 -95 -223 -179 -32 -70 -29 -186 5 -269
78 -185 316 -436 468 -494 80 -30 173 -26 248 11 176 88 223 270 122 471 -68
133 -258 342 -371 406 -55 32 -155 64 -194 62 -11 -1 -36 -4 -55 -8z m150
-144 c94 -46 317 -294 374 -417 67 -144 -2 -280 -141 -280 -100 0 -201 73
-354 258 -126 152 -176 267 -150 345 38 115 148 153 271 94z"/>
<path d="M11451 9838 l-324 -411 39 -34 c73 -63 61 -69 190 94 180 227 186
234 195 231 12 -4 418 -322 418 -328 1 -3 -67 -90 -149 -195 -82 -104 -150
-192 -150 -195 0 -3 24 -24 54 -47 l54 -43 324 411 c177 226 323 414 323 419
0 4 -23 26 -52 49 l-52 41 -135 -170 -134 -170 -211 166 c-116 92 -211 170
-211 173 0 3 59 80 130 170 72 90 130 165 130 167 0 5 -103 84 -109 84 -3 0
-152 -185 -330 -412z"/>
<path d="M27353 9589 c-65 -25 -145 -96 -172 -153 -31 -62 -37 -156 -16 -235
49 -190 257 -471 407 -551 119 -64 240 -52 349 34 73 58 101 114 107 216 7
124 -29 220 -149 400 -168 251 -358 356 -526 289z m183 -124 c60 -30 110 -80
203 -205 98 -130 164 -262 168 -337 10 -149 -117 -235 -256 -173 -85 39 -244
235 -327 403 -65 133 -69 205 -16 269 61 73 139 88 228 43z"/>
<path d="M26173 8852 c-146 -52 -213 -146 -213 -299 0 -98 21 -175 80 -298 92
-192 207 -333 315 -385 26 -13 74 -25 108 -27 110 -9 232 54 291 150 25 41 30
61 34 134 7 139 -32 263 -145 452 -135 229 -310 330 -470 273z m177 -134 c35
-22 72 -57 107 -103 60 -80 174 -294 197 -374 44 -150 -13 -267 -134 -279 -96
-9 -165 38 -254 171 -66 99 -148 262 -170 336 -34 116 -9 210 67 256 61 36
118 34 187 -7z"/>
<path d="M13997 8690 c-163 -41 -328 -247 -423 -530 -39 -114 -41 -238 -5
-317 45 -101 165 -178 276 -177 160 0 285 105 408 343 86 164 110 246 111 366
0 85 -3 107 -23 147 -58 118 -222 198 -344 168z m171 -139 c36 -25 67 -79 77
-133 19 -102 -134 -438 -258 -565 -122 -126 -291 -80 -322 87 -9 55 29 182 95
315 73 146 148 249 215 293 45 30 56 34 106 30 37 -3 66 -12 87 -27z"/>
<path d="M24924 8246 c-270 -68 -312 -334 -117 -736 48 -96 68 -126 132 -191
66 -67 84 -79 135 -94 146 -43 310 24 372 152 57 115 41 276 -47 491 -121 297
-284 427 -475 378z m143 -127 c76 -37 171 -191 242 -391 65 -185 63 -274 -8
-348 -99 -104 -230 -60 -332 110 -82 138 -159 366 -159 471 0 137 133 218 257
158z"/>
<path d="M15247 8105 c-134 -51 -238 -195 -321 -445 -81 -246 -67 -403 45
-504 67 -61 120 -81 219 -81 76 0 91 3 139 30 79 44 144 123 206 250 151 311
164 547 36 673 -79 77 -230 113 -324 77z m170 -110 c63 -26 97 -70 114 -143
26 -118 -111 -493 -221 -603 -99 -99 -226 -86 -287 31 -35 66 -27 168 22 314
70 208 159 356 237 395 51 25 86 26 135 6z"/>
<path d="M23561 7770 c-170 -61 -237 -214 -197 -450 48 -274 152 -480 285
-558 41 -24 56 -27 136 -27 76 0 99 4 146 26 72 34 123 88 151 158 75 194 -48
656 -213 795 -88 75 -199 95 -308 56z m164 -109 c79 -35 144 -141 199 -321 63
-209 71 -316 30 -398 -59 -119 -189 -135 -288 -36 -81 81 -186 404 -186 570 0
147 123 241 245 185z"/>
<path d="M16601 7679 c-156 -48 -272 -247 -328 -564 -51 -296 71 -487 313
-488 88 0 145 25 214 95 123 124 226 470 200 670 -17 138 -62 208 -165 259
-71 35 -172 47 -234 28z m164 -118 c50 -23 68 -43 96 -106 19 -42 21 -60 15
-129 -12 -162 -89 -413 -151 -498 -100 -136 -272 -114 -324 41 -25 76 -5 234
51 411 53 165 102 245 171 279 51 26 90 26 142 2z"/>
<path d="M22240 7458 c-152 -23 -242 -130 -265 -315 -16 -125 36 -406 99 -538
76 -161 193 -230 345 -206 123 20 208 89 248 203 29 86 25 309 -10 458 -70
299 -207 430 -417 398z m149 -141 c70 -46 123 -180 157 -394 23 -152 17 -274
-18 -329 -29 -46 -78 -81 -127 -90 -72 -15 -170 56 -212 152 -70 165 -106 473
-66 576 20 52 73 105 115 114 15 3 32 7 37 8 21 5 78 -13 114 -37z"/>
<path d="M18009 7399 c-82 -12 -141 -55 -199 -141 -73 -109 -121 -316 -122
-523 0 -152 23 -230 94 -310 36 -42 73 -63 143 -81 208 -56 361 67 429 346 63
259 53 459 -28 588 -56 89 -191 141 -317 121z m163 -134 c23 -15 46 -44 63
-80 25 -50 27 -65 27 -164 -1 -180 -50 -406 -106 -486 -70 -100 -176 -122
-258 -55 -70 58 -93 154 -77 322 19 204 65 359 127 428 65 72 147 85 224 35z"/>
<path d="M20766 7270 c-96 -38 -162 -129 -191 -265 -29 -136 -13 -384 33 -532
57 -181 163 -260 336 -251 157 9 250 96 292 275 20 86 14 373 -11 473 -38 154
-123 270 -222 304 -64 22 -176 20 -237 -4z m224 -124 c83 -55 122 -198 124
-456 1 -198 -9 -244 -68 -306 -81 -83 -179 -77 -258 15 -61 72 -91 215 -92
436 0 105 4 154 17 197 43 143 161 191 277 114z"/>
<path d="M19378 7260 c-71 -21 -140 -85 -182 -168 -44 -88 -58 -165 -63 -358
-5 -161 -3 -189 16 -264 49 -194 154 -278 335 -268 96 5 145 27 200 89 87 96
126 245 127 484 0 95 -5 162 -15 209 -32 137 -107 236 -206 271 -45 16 -166
19 -212 5z m168 -111 c38 -13 92 -79 111 -133 25 -72 25 -398 0 -501 -35 -138
-101 -207 -198 -207 -94 0 -165 76 -189 201 -13 70 -13 254 1 361 29 234 127
334 275 279z"/>
<path d="M10445 34898 c-11 -6 -129 -85 -263 -175 l-242 -164 301 -450 c166
-247 306 -449 310 -449 20 0 150 94 145 105 -2 7 -115 176 -250 377 -135 201
-249 373 -252 381 -4 12 42 47 176 137 l181 121 -17 27 c-42 65 -67 102 -68
102 0 0 -10 -6 -21 -12z"/>
<path d="M29391 34888 c-104 -12 -201 -64 -293 -159 -162 -166 -246 -373 -219
-539 30 -183 182 -347 387 -416 68 -23 90 -26 159 -21 46 3 104 14 135 26 55
21 151 84 149 99 0 4 -32 33 -70 64 l-70 57 -63 -33 c-87 -46 -146 -53 -226
-26 -87 29 -143 78 -182 158 -29 58 -33 76 -32 142 1 50 8 93 23 131 39 102 7
113 379 -132 184 -120 337 -219 340 -219 12 0 83 118 108 178 88 216 40 431
-128 566 -126 102 -249 141 -397 124z m201 -185 c64 -20 140 -89 167 -154 30
-68 30 -155 1 -231 -12 -32 -26 -58 -31 -58 -4 0 -119 72 -254 161 -271 178
-262 168 -188 227 100 78 184 93 305 55z"/>
<path d="M30371 34255 c-22 -30 -41 -59 -41 -64 0 -6 61 -56 135 -113 l134
-102 -26 -36 c-40 -52 -481 -629 -515 -672 l-28 -36 62 -49 c35 -27 68 -52 75
-56 9 -6 295 357 569 722 9 12 32 -2 140 -85 71 -55 134 -103 141 -107 7 -5
29 15 57 51 l45 59 -27 25 c-30 27 -670 518 -676 518 -2 0 -22 -25 -45 -55z"/>
<path d="M9295 34076 c-106 -35 -227 -119 -288 -199 -69 -91 -114 -238 -101
-332 20 -142 103 -294 231 -420 144 -142 306 -193 474 -150 109 29 235 113
301 203 125 168 138 330 44 517 -83 163 -202 289 -336 354 -70 33 -82 36 -180
38 -67 2 -119 -2 -145 -11z m205 -181 c100 -35 230 -169 292 -301 29 -61 33
-78 33 -154 0 -133 -47 -211 -162 -271 -70 -37 -163 -40 -248 -8 -73 27 -195
142 -252 237 -71 119 -88 209 -58 309 50 167 222 249 395 188z"/>
<path d="M31372 33334 c-103 -27 -200 -92 -301 -200 -86 -92 -128 -155 -164
-245 -72 -179 -33 -352 111 -498 94 -95 188 -141 304 -148 72 -5 93 -2 156 20
64 22 171 83 172 97 0 3 -28 36 -61 73 l-62 68 -21 -20 c-11 -11 -47 -32 -80
-47 -108 -49 -227 -20 -310 77 -116 136 -77 315 109 505 106 107 169 144 261
152 145 11 279 -85 300 -216 7 -44 -11 -148 -28 -158 -20 -13 -3 -35 63 -78
39 -25 75 -46 79 -46 11 0 48 91 61 151 26 121 -24 262 -131 366 -138 136
-304 189 -458 147z"/>
<path d="M7656 32650 c-206 -73 -366 -312 -341 -509 16 -128 83 -246 211 -375
198 -198 402 -250 603 -154 91 43 200 153 243 244 44 94 51 216 18 314 -22 66
-68 150 -83 150 -7 0 -137 -99 -137 -104 0 -2 14 -32 32 -67 76 -152 30 -300
-116 -377 -42 -22 -64 -27 -126 -26 -108 0 -175 37 -302 163 -103 103 -151
181 -164 267 -9 63 12 142 55 204 73 105 194 139 308 85 l53 -24 54 72 c62 82
62 81 -34 124 -78 36 -194 41 -274 13z"/>
<path d="M32315 32600 l-49 -50 34 -37 c19 -21 74 -79 123 -128 l87 -91 -335
-324 c-184 -179 -335 -327 -335 -330 0 -3 29 -34 64 -69 l63 -63 224 218 c123
120 274 267 335 327 l111 109 124 -126 123 -127 55 55 55 55 -90 93 c-367 380
-523 538 -531 538 -5 0 -31 -22 -58 -50z"/>
<path d="M32919 31349 c-211 -177 -398 -335 -416 -353 l-32 -31 184 -217 c193
-230 235 -272 312 -309 63 -31 189 -34 243 -5 66 35 118 86 145 141 24 47 27
64 24 127 l-4 73 71 -3 c57 -3 79 0 112 17 58 30 108 76 140 130 23 40 27 57
27 126 0 121 -17 149 -292 478 -68 81 -125 147 -127 147 -1 0 -175 -144 -387
-321z m474 -22 c100 -122 123 -158 143 -217 15 -46 15 -51 -2 -87 -24 -48 -76
-83 -123 -83 -71 1 -113 31 -223 160 -57 66 -103 125 -103 131 0 12 206 188
221 189 5 0 45 -42 87 -93z m-313 -342 c94 -112 140 -189 140 -235 0 -50 -42
-113 -91 -138 -89 -45 -152 -8 -311 179 -57 66 -104 124 -106 128 -1 4 52 54
119 110 118 99 123 102 140 84 9 -10 59 -67 109 -128z"/>
<path d="M6216 30979 c-109 -27 -229 -120 -305 -238 -62 -96 -76 -148 -76
-276 0 -106 1 -112 37 -185 96 -196 337 -370 545 -395 229 -26 482 174 533
422 35 168 -14 319 -149 453 -86 86 -191 159 -283 197 -51 22 -82 27 -163 29
-55 2 -117 -1 -139 -7z m169 -180 c67 -19 126 -50 203 -107 113 -85 172 -167
192 -271 25 -132 -40 -260 -163 -322 -58 -30 -160 -37 -229 -15 -134 44 -296
176 -352 288 -57 115 -32 262 59 350 78 76 189 105 290 77z"/>
<path d="M33961 30445 c-133 -30 -298 -129 -401 -241 -27 -31 -67 -90 -88
-132 -36 -76 -37 -79 -37 -192 1 -101 4 -122 27 -177 46 -109 135 -221 224
-283 88 -62 222 -85 341 -60 79 17 79 18 37 96 -20 38 -41 74 -46 80 -6 8 -36
10 -93 6 -67 -4 -95 -1 -132 13 -158 60 -232 261 -154 419 28 57 111 156 131
156 5 0 110 -144 235 -320 124 -176 231 -322 236 -326 13 -8 100 59 168 127
92 94 150 229 151 348 0 144 -105 331 -234 417 -106 70 -245 96 -365 69z m255
-200 c65 -29 120 -84 152 -153 21 -46 24 -65 20 -126 -3 -45 -13 -86 -26 -113
-28 -54 -99 -130 -111 -117 -5 5 -84 114 -175 243 -123 174 -163 238 -155 247
11 13 85 40 129 47 45 7 114 -5 166 -28z"/>
<path d="M5407 29859 c-74 -17 -133 -64 -207 -164 -79 -108 -281 -428 -273
-435 4 -4 175 -114 378 -245 204 -131 406 -262 451 -291 l81 -52 155 241 c84
133 164 265 177 292 34 73 40 187 13 247 -27 62 -90 128 -149 158 -66 34 -178
35 -240 3 l-43 -23 0 33 c0 90 -97 200 -202 232 -57 17 -84 17 -141 4z m129
-211 c36 -24 42 -34 54 -85 13 -56 -8 -113 -92 -246 -44 -70 -85 -130 -90
-133 -11 -7 -248 146 -248 160 0 6 34 62 75 124 78 116 139 186 178 202 32 14
85 4 123 -22z m422 -215 c71 -53 84 -119 40 -215 -31 -67 -178 -298 -190 -298
-6 0 -229 139 -267 167 -6 4 170 273 204 312 16 19 43 40 60 48 40 18 120 11
153 -14z"/>
<path d="M34540 29100 c-250 -148 -456 -274 -458 -279 -3 -8 63 -133 83 -159
1 -1 94 52 205 118 112 66 207 120 211 120 8 0 263 -429 258 -434 -2 -2 -94
-56 -204 -121 -110 -65 -202 -119 -204 -121 -9 -7 89 -159 101 -156 27 7 929
545 926 552 -12 31 -85 150 -93 150 -5 0 -93 -49 -195 -110 -103 -60 -189
-110 -192 -110 -3 0 -63 98 -134 217 -103 174 -125 218 -114 225 8 5 97 57
197 116 l182 108 -46 77 c-25 42 -50 77 -57 76 -6 0 -216 -121 -466 -269z"/>
<path d="M4470 28484 c-113 -207 -205 -383 -205 -391 0 -7 28 -29 62 -49 l62
-34 72 132 c39 73 78 143 85 155 13 21 20 18 416 -198 222 -121 407 -221 412
-222 7 -2 100 154 94 158 -2 1 -183 99 -403 219 -220 120 -404 221 -408 225
-5 5 28 74 72 155 45 81 81 150 81 154 0 8 -113 72 -127 72 -4 0 -100 -169
-213 -376z"/>
<path d="M35425 27959 c-159 -78 -377 -183 -483 -234 l-192 -94 41 -84 42 -84
215 103 c118 57 216 104 218 104 6 0 225 -452 222 -456 -2 -1 -97 -47 -212
-103 -115 -56 -212 -104 -215 -106 -6 -7 71 -165 80 -165 10 0 962 459 972
469 4 4 -11 44 -32 89 l-40 81 -73 -33 c-40 -18 -128 -61 -195 -95 -68 -33
-129 -61 -136 -61 -14 0 -230 437 -222 450 2 3 92 49 200 101 107 51 195 98
195 104 0 23 -70 155 -82 155 -7 0 -143 -64 -303 -141z"/>
<path d="M4165 27631 c-105 -27 -216 -128 -269 -243 -47 -103 -60 -165 -54
-270 5 -73 11 -100 37 -153 56 -113 158 -202 316 -276 292 -137 534 -92 685
126 112 163 120 373 19 522 -26 37 -135 143 -148 143 -4 0 -19 -21 -34 -48
-15 -26 -37 -61 -48 -78 l-19 -31 43 -34 c112 -86 146 -212 89 -330 -65 -133
-196 -188 -362 -149 -85 19 -249 102 -307 155 -102 91 -135 226 -84 340 46
104 116 149 232 149 l75 1 23 84 c12 46 19 86 16 90 -10 9 -175 11 -210 2z"/>
<path d="M35990 26704 c-14 -3 -68 -18 -120 -34 -190 -59 -332 -165 -395 -294
-34 -70 -58 -177 -51 -226 2 -14 7 -46 11 -72 14 -104 95 -251 177 -323 24
-21 75 -53 115 -72 128 -62 276 -55 467 20 210 83 317 193 362 370 47 182 -39
421 -193 539 -83 62 -157 89 -263 93 -47 2 -96 1 -110 -1z m233 -212 c152 -67
222 -246 155 -392 -34 -76 -78 -123 -157 -170 -159 -94 -340 -121 -452 -69
-68 32 -121 84 -151 147 -34 71 -32 189 4 257 54 104 204 204 360 240 79 18
184 12 241 -13z"/>
<path d="M3701 26339 c-168 -29 -294 -138 -361 -310 -109 -284 19 -543 332
-671 346 -140 626 -30 742 291 59 164 42 326 -47 447 -44 60 -111 119 -125
110 -4 -2 -25 -40 -46 -85 l-40 -80 42 -42 c109 -111 116 -265 16 -396 -70
-92 -224 -135 -356 -100 l-46 12 119 330 c65 182 128 353 138 382 l20 52 -77
24 c-42 14 -88 28 -102 30 -56 12 -158 15 -209 6z m165 -191 c5 -6 -178 -529
-196 -558 -9 -15 -37 -2 -96 46 -165 133 -139 396 47 492 61 32 68 34 151 30
48 -2 90 -7 94 -10z"/>
<path d="M36420 25333 c-14 -2 -76 -20 -139 -40 -137 -43 -242 -109 -300 -187
-95 -126 -119 -236 -86 -391 50 -236 222 -375 466 -375 66 0 64 -4 49 86 -20
112 -16 106 -60 101 -47 -5 -133 9 -170 28 -80 41 -133 137 -134 240 -1 161
103 264 332 330 130 37 237 38 312 3 30 -14 70 -41 89 -59 38 -37 77 -115 85
-173 12 -77 -33 -172 -105 -222 -21 -14 -39 -30 -39 -34 0 -15 71 -160 78
-160 4 0 30 15 58 34 177 119 218 344 106 575 -14 30 -50 80 -79 112 -96 103
-187 140 -342 138 -53 -1 -107 -4 -121 -6z"/>
<path d="M3001 24963 c-24 -93 -33 -134 -30 -137 2 -2 202 -54 444 -116 242
-61 445 -113 451 -115 18 -6 -84 -405 -103 -405 -8 0 -213 50 -455 111 -242
61 -441 109 -443 107 -5 -5 -46 -170 -43 -173 2 -2 203 -54 448 -115 245 -62
448 -116 452 -119 7 -6 -85 -388 -95 -398 -3 -2 -203 46 -445 107 -242 60
-447 110 -455 110 -10 0 -21 -27 -36 -86 -12 -48 -21 -88 -19 -89 7 -8 1051
-266 1055 -261 3 2 79 298 170 658 91 359 166 654 168 656 1 2 66 -13 143 -33
78 -19 145 -35 150 -35 11 0 47 138 39 146 -5 5 -422 113 -438 114 -4 0 -10
-16 -14 -36 -3 -20 -10 -46 -15 -59 l-9 -23 -448 114 c-246 63 -451 114 -455
114 -4 0 -12 -17 -17 -37z"/>
<path d="M37102 24196 c-29 -7 -54 -15 -57 -17 -2 -3 12 -74 31 -158 18 -85
34 -161 34 -170 0 -13 -88 -35 -453 -114 -248 -55 -453 -100 -454 -101 -7 -6
35 -170 43 -173 6 -2 206 39 445 92 240 52 442 95 450 95 11 0 24 -42 52 -166
20 -92 38 -168 39 -169 8 -8 148 30 148 39 -1 6 -42 200 -93 431 -103 472 -87
435 -185 411z"/>
<path d="M2112 23068 c-8 -55 -9 -85 -2 -92 14 -14 12 -70 -6 -189 -73 -481
84 -662 646 -746 277 -41 425 -37 555 15 142 57 230 149 277 290 19 57 23 91
23 189 0 115 -1 123 -32 188 -37 78 -129 176 -207 222 -106 62 -293 103 -412
91 -251 -26 -419 -182 -452 -422 -20 -147 14 -257 112 -361 35 -38 34 -38 -47
-17 -253 65 -323 180 -281 464 9 58 16 157 17 220 2 107 0 117 -22 149 -23 32
-108 81 -142 81 -12 0 -18 -18 -27 -82z m994 -239 c275 -49 419 -251 319 -449
-30 -60 -99 -122 -161 -146 -75 -29 -255 -27 -351 4 -123 40 -228 131 -253
220 -16 58 -12 136 11 196 53 143 226 213 435 175z"/>
<path d="M36910 22813 c-289 -41 -526 -76 -527 -77 -6 -5 77 -548 91 -591 62
-195 231 -294 413 -240 109 33 178 116 209 254 19 83 15 185 -12 369 -9 57
-12 108 -7 112 4 4 96 19 203 34 107 15 198 30 202 34 4 4 1 45 -5 92 -9 61
-16 85 -27 87 -8 1 -251 -32 -540 -74z m5 -215 c14 -65 35 -246 35 -301 0 -86
-15 -130 -55 -166 -96 -84 -211 -54 -263 69 -29 69 -81 354 -68 368 6 6 278
49 323 51 16 1 24 -6 28 -21z"/>
<path d="M2442 21554 c-78 -17 -192 -64 -251 -103 -101 -67 -196 -181 -247
-296 -32 -74 -43 -121 -54 -239 -22 -226 46 -421 197 -568 141 -136 318 -204
568 -215 253 -11 508 95 639 268 57 73 113 192 132 277 23 105 15 311 -16 402
-69 203 -174 321 -367 412 -122 57 -228 78 -398 76 -77 0 -168 -7 -203 -14z
m403 -210 c185 -37 335 -159 398 -324 24 -62 33 -194 18 -272 -39 -199 -189
-347 -398 -394 -150 -33 -395 -6 -540 60 -152 70 -263 255 -263 439 0 371 338
583 785 491z"/>
<path d="M37070 21462 c-283 -13 -516 -25 -516 -26 -1 0 0 -42 3 -93 l6 -92
146 7 c80 4 189 7 241 7 l95 0 3 -106 3 -105 -83 -18 c-254 -54 -398 -217
-398 -449 0 -246 134 -411 375 -462 133 -28 339 -15 465 30 96 34 214 136 258
221 31 60 46 154 39 247 -10 151 -55 244 -156 323 -67 53 -135 80 -252 102
l-87 16 -6 51 c-3 27 -6 75 -6 106 l0 57 73 6 c39 3 141 8 225 12 l153 7 -3
91 -3 91 -30 1 c-16 1 -262 -10 -545 -24z m271 -616 c68 -21 99 -39 141 -83
85 -87 91 -236 14 -338 -74 -96 -351 -153 -536 -109 -153 36 -237 133 -233
271 4 141 104 231 298 268 93 17 246 13 316 -9z"/>
<path d="M5640 11185 c-51 -23 -89 -64 -101 -108 -11 -43 -2 -126 33 -287 34
-160 36 -170 27 -170 -5 0 -62 52 -128 116 -66 64 -135 126 -153 137 -18 10
-58 22 -89 24 -50 5 -64 2 -103 -21 -25 -14 -58 -43 -73 -63 -25 -32 -28 -45
-28 -108 0 -61 4 -77 27 -113 32 -48 88 -83 178 -111 200 -62 240 -75 240 -81
0 -7 -94 -36 -210 -65 -90 -23 -158 -62 -189 -109 -44 -67 -38 -235 10 -277
60 -51 151 -64 224 -30 78 35 191 114 249 174 33 34 61 56 63 50 2 -5 -10 -54
-27 -107 -42 -132 -63 -254 -51 -305 19 -86 83 -131 187 -131 77 0 106 13 161
73 62 67 69 142 24 272 -25 74 -44 174 -39 205 l3 23 30 -30 c17 -16 66 -66
109 -112 89 -93 135 -120 212 -128 72 -8 131 16 183 72 41 44 41 45 41 125 0
50 -5 91 -14 108 -35 67 -108 109 -236 137 -87 19 -200 57 -200 67 0 8 103 41
200 64 169 38 233 99 233 219 0 68 -15 105 -65 152 -41 39 -76 53 -134 53 -66
0 -117 -31 -235 -144 -58 -55 -120 -110 -139 -120 l-33 -19 7 53 c4 28 18 86
31 128 85 275 53 379 -125 396 -48 5 -74 2 -100 -9z m106 -179 c-3 -11 -8 -40
-12 -64 -9 -58 -24 -63 -24 -9 0 25 -3 58 -6 75 -6 28 -4 29 21 24 21 -4 25
-9 21 -26z m-453 -327 l62 -60 -35 7 c-64 12 -140 51 -140 71 0 22 18 43 38
43 8 0 42 -27 75 -61z m971 39 c29 -41 -8 -66 -139 -93 -28 -6 -26 -3 32 54
33 34 68 61 76 61 9 0 23 -10 31 -22z m-855 -535 c-11 -19 -143 -104 -183
-119 -14 -5 -17 -3 -14 7 3 8 1 24 -3 36 -12 33 9 48 103 72 46 12 88 24 93
25 16 5 17 -1 4 -21z m759 2 c115 -26 155 -63 115 -107 -30 -33 -59 -22 -136
52 -39 38 -66 70 -59 70 7 0 43 -7 80 -15z m-403 -320 c18 -64 18 -67 -1 -85
-10 -10 -28 -20 -39 -22 -18 -3 -20 2 -17 52 3 67 20 132 31 125 5 -2 17 -34
26 -70z"/>
<path d="M34185 11187 c-57 -23 -93 -58 -105 -102 -15 -52 -1 -177 37 -332 14
-56 23 -110 21 -120 -2 -14 -33 11 -128 102 -69 67 -138 129 -154 139 -16 10
-54 20 -85 23 -68 6 -120 -16 -169 -72 -39 -43 -46 -69 -40 -144 7 -101 73
-161 228 -207 156 -46 210 -66 210 -74 0 -10 -63 -31 -179 -60 -107 -27 -173
-60 -207 -106 -23 -30 -28 -48 -32 -112 -2 -42 1 -96 7 -119 23 -86 146 -129
247 -87 66 28 196 118 257 179 31 32 60 55 63 52 3 -3 -10 -54 -29 -114 -40
-122 -62 -248 -52 -296 10 -47 43 -96 79 -118 39 -24 163 -26 204 -5 66 35
122 121 122 189 0 19 -14 81 -30 138 -17 57 -33 133 -36 169 l-6 65 104 -106
c125 -129 171 -159 248 -166 73 -7 117 8 174 58 l46 41 0 103 c0 97 -2 105
-26 134 -40 47 -100 78 -199 101 -115 27 -215 59 -215 70 0 10 99 43 202 66
99 23 165 58 201 110 24 34 29 51 29 100 0 72 -11 100 -54 149 -40 46 -82 65
-145 65 -67 0 -118 -30 -221 -131 -74 -72 -169 -149 -185 -149 -8 0 22 141 43
205 28 85 44 195 36 249 -7 47 -42 88 -92 106 -41 16 -138 20 -169 7z m105
-164 c0 -8 -22 -98 -27 -113 -3 -8 -11 14 -17 50 -7 36 -11 68 -9 71 3 7 53
-1 53 -8z m-458 -344 l63 -61 -34 6 c-60 11 -141 53 -141 73 0 22 18 43 37 43
7 0 41 -27 75 -61z m968 47 c6 -8 10 -25 8 -38 -3 -23 -51 -45 -138 -63 l-35
-7 60 61 c61 62 83 72 105 47z m-851 -542 c-25 -30 -186 -132 -194 -122 -1 2
-5 20 -9 40 -6 31 -3 39 13 48 25 13 194 59 200 54 2 -2 -2 -11 -10 -20z m767
-2 c114 -29 147 -60 107 -104 -23 -26 -52 -22 -99 15 -54 41 -110 107 -93 107
8 0 46 -8 85 -18z m-416 -308 c21 -71 17 -94 -21 -114 -15 -8 -24 -8 -33 0
-11 9 -11 23 0 83 15 77 21 97 28 97 3 0 14 -30 26 -66z"/>
<path d="M31088 7775 c-126 -113 -228 -209 -228 -213 0 -6 647 -732 703 -789
l22 -22 69 63 70 63 -312 346 c-172 190 -312 347 -312 350 0 2 72 68 160 147
88 79 160 146 160 149 0 9 -90 111 -98 111 -4 0 -109 -92 -234 -205z"/>
<path d="M30098 6936 c-98 -26 -228 -127 -270 -210 -11 -22 -26 -72 -32 -110
l-12 -70 -34 47 c-18 26 -39 47 -45 47 -6 0 -39 -21 -73 -46 -42 -31 -60 -50
-54 -58 5 -6 208 -276 452 -601 244 -324 445 -592 446 -594 2 -2 38 22 79 53
53 40 73 61 67 69 -32 42 -288 383 -294 392 -5 8 19 11 77 12 74 0 93 4 149
32 113 55 198 161 231 286 47 184 -31 408 -205 586 -144 147 -322 208 -482
165z m209 -192 c33 -16 82 -53 118 -88 169 -169 230 -341 175 -490 -55 -146
-222 -202 -375 -127 -100 49 -224 197 -276 329 -35 86 -33 208 4 279 65 125
209 165 354 97z"/>
<path d="M10649 6701 c-203 -38 -415 -210 -543 -443 -152 -276 -165 -554 -34
-754 65 -99 198 -210 326 -274 163 -80 363 -81 521 0 61 30 181 115 181 127 0
5 -30 41 -68 82 l-67 74 -42 -36 c-160 -133 -337 -153 -508 -56 -98 55 -183
157 -218 263 -21 63 -22 179 -1 260 20 80 95 232 152 308 176 234 381 322 587
253 71 -24 188 -99 229 -147 83 -96 109 -234 72 -378 -6 -24 -2 -27 81 -58 48
-18 93 -32 99 -32 34 0 47 250 19 348 -57 196 -232 362 -464 438 -84 28 -240
40 -322 25z"/>
<path d="M29005 6164 c-38 -24 -71 -49 -73 -54 -2 -5 10 -76 27 -157 17 -81
51 -249 77 -373 25 -124 54 -254 65 -289 10 -35 19 -68 19 -73 0 -6 -25 13
-55 41 -64 58 -652 531 -661 531 -10 0 -163 -95 -164 -102 0 -7 120 -101 595
-467 184 -142 320 -253 325 -267 16 -41 34 -188 27 -216 -11 -44 -64 -95 -128
-126 l-59 -29 52 -66 c49 -62 55 -67 83 -61 79 17 162 80 194 149 42 90 38
190 -19 475 -11 52 -49 248 -85 435 -37 187 -82 417 -101 510 -19 94 -34 174
-34 178 0 13 -14 6 -85 -39z"/>
<path d="M27479 5787 c-39 -19 -72 -43 -81 -58 -11 -18 -59 -48 -149 -94 -282
-143 -387 -260 -397 -443 -8 -152 35 -299 164 -552 129 -255 232 -380 368
-445 152 -73 266 -69 436 16 76 38 110 62 153 109 137 148 155 396 44 616
-149 296 -411 402 -679 277 -124 -58 -225 -180 -244 -295 -4 -21 -10 -38 -14
-38 -5 0 -21 39 -37 88 -20 64 -28 107 -28 162 0 139 57 199 325 340 88 47
176 100 195 118 38 37 59 96 49 139 -11 53 -26 93 -32 92 -4 0 -37 -15 -73
-32z m159 -718 c142 -70 262 -279 262 -455 0 -97 -24 -161 -84 -221 -84 -84
-205 -105 -320 -55 -68 31 -112 70 -163 146 -71 108 -97 191 -98 311 0 117 14
155 83 222 87 85 213 106 320 52z"/>
<path d="M12077 5419 c-46 -11 -131 -64 -175 -112 l-34 -35 36 -26 c20 -14 51
-37 70 -51 19 -14 37 -25 41 -25 3 0 28 18 56 40 88 70 163 73 286 13 109 -54
173 -131 173 -208 0 -36 -46 -155 -59 -155 -18 0 -176 47 -321 97 -147 50
-173 56 -246 56 -134 0 -229 -56 -286 -167 -28 -53 -32 -71 -32 -141 -1 -68 3
-88 26 -131 75 -143 307 -257 488 -240 37 3 82 9 100 12 31 7 33 6 26 -17 -4
-13 -11 -43 -15 -67 l-8 -43 88 -45 89 -44 0 30 c0 70 29 140 182 446 157 315
161 324 166 397 4 63 1 83 -17 120 -32 67 -97 131 -189 186 -169 102 -321 139
-445 110z m63 -623 c58 -19 140 -42 183 -52 42 -10 77 -22 77 -27 0 -19 -80
-144 -112 -174 -103 -99 -282 -102 -423 -5 -46 31 -85 100 -85 150 0 76 57
141 134 152 49 7 89 -1 226 -44z"/>
<path d="M13496 4812 c-8 -13 -396 -993 -396 -1000 0 -9 161 -73 170 -67 4 2
45 101 91 220 46 118 89 215 96 215 14 0 445 -169 456 -179 4 -4 -31 -105 -79
-225 -48 -122 -83 -221 -78 -226 16 -15 159 -68 165 -62 11 12 401 1003 397
1007 -8 8 -151 65 -162 65 -6 0 -47 -91 -91 -201 -44 -111 -84 -203 -90 -206
-11 -4 -443 162 -458 176 -4 4 28 99 73 211 44 112 80 207 80 210 0 6 -65 34
-151 65 -10 4 -19 2 -23 -3z"/>
<path d="M25920 4610 c-58 -10 -142 -44 -187 -74 -43 -30 -107 -114 -123 -161
-6 -19 -15 -35 -19 -35 -4 0 -15 25 -26 55 -10 30 -21 55 -23 55 -21 0 -152
-57 -152 -66 0 -12 517 -1395 525 -1402 4 -4 140 43 163 57 9 5 -11 69 -77
246 -50 132 -89 240 -88 241 1 2 27 -6 57 -16 144 -50 313 -3 421 117 48 54
74 98 99 173 19 57 21 80 17 185 -7 171 -54 300 -161 441 -105 141 -272 213
-426 184z m128 -175 c121 -51 211 -178 261 -370 26 -98 27 -170 2 -240 -57
-163 -214 -229 -366 -156 -88 42 -148 116 -199 244 -68 174 -69 307 -1 423 61
104 189 146 303 99z"/>
<path d="M14865 3750 c-82 -281 -151 -517 -153 -524 -2 -8 28 -22 85 -39 48
-14 89 -24 91 -22 2 2 35 108 72 235 38 128 71 234 73 237 9 8 65 -26 86 -53
30 -39 58 -120 102 -303 22 -91 44 -182 49 -202 10 -35 12 -36 106 -63 53 -15
98 -25 99 -24 2 2 -6 37 -16 78 -100 388 -128 465 -193 538 l-36 40 43 10 c59
15 112 60 203 171 l76 93 57 -5 c31 -3 65 -7 76 -9 16 -2 23 7 37 47 26 79 24
92 -19 105 -21 6 -68 14 -104 17 -93 8 -125 -12 -250 -159 -130 -153 -155
-172 -221 -170 -28 0 -53 3 -56 6 -4 5 48 195 113 408 l14 47 -67 20 c-37 11
-78 22 -92 26 l-25 6 -150 -511z"/>
<path d="M24268 4080 c-105 -26 -171 -62 -244 -131 -136 -131 -176 -323 -115
-557 100 -387 417 -540 766 -371 150 72 255 229 255 381 0 44 1 44 -114 27
l-75 -11 -12 -57 c-14 -71 -54 -147 -94 -176 -64 -50 -124 -67 -210 -63 -134
7 -221 69 -287 206 -16 35 -28 65 -26 67 2 2 176 50 388 106 212 56 387 104
389 106 9 7 -32 133 -69 208 -69 143 -182 238 -320 269 -88 20 -136 19 -232
-4z m206 -160 c68 -26 130 -85 163 -157 14 -30 23 -55 22 -57 -10 -7 -575
-153 -578 -150 -2 2 -6 29 -9 59 -18 214 200 380 402 305z"/>
<path d="M18980 3908 c0 -13 -9 -342 -20 -733 -11 -390 -20 -720 -20 -732 0
-22 3 -23 100 -23 55 0 100 1 101 3 0 1 9 295 19 654 10 359 21 656 23 660 6
9 762 -9 771 -18 5 -4 -11 -737 -27 -1220 l-3 -96 99 -7 c55 -4 101 -6 102 -4
4 4 45 1501 41 1505 -3 3 -1020 33 -1123 33 -59 0 -63 -2 -63 -22z"/>
<path d="M16275 3888 c-18 -81 -25 -121 -22 -124 2 -3 75 -18 163 -36 87 -17
163 -34 168 -39 4 -4 -33 -210 -84 -459 -50 -249 -90 -454 -87 -456 8 -8 168
-37 173 -31 4 3 47 207 97 454 49 246 91 450 93 452 2 2 78 -11 169 -29 97
-19 169 -29 174 -24 9 10 34 134 29 140 -5 4 -839 174 -856 174 -6 0 -14 -10
-17 -22z"/>
<path d="M22791 3735 c-232 -41 -425 -76 -428 -79 -7 -7 7 -120 17 -136 7 -11
37 -9 174 15 91 16 168 26 170 24 3 -2 40 -209 82 -459 43 -250 78 -456 79
-457 1 -3 179 27 181 30 1 1 -34 207 -77 457 -43 250 -75 458 -71 462 4 4 81
19 172 34 91 15 166 28 167 28 1 1 -15 98 -22 134 -3 12 -9 22 -13 21 -4 0
-198 -34 -431 -74z"/>
<path d="M21293 3568 c-149 -23 -291 -126 -356 -258 -71 -145 -74 -394 -7
-572 52 -141 172 -248 320 -288 67 -19 235 -16 305 5 180 52 297 172 339 348
6 27 6 27 -42 27 -27 0 -70 3 -95 6 l-46 7 -29 -65 c-61 -134 -134 -183 -272
-182 -72 0 -93 4 -135 26 -63 33 -116 88 -149 153 -25 50 -51 144 -42 152 2 3
183 19 403 36 l398 32 -3 65 c-8 188 -98 360 -232 445 -94 59 -228 83 -357 63z
m179 -158 c49 -14 116 -66 149 -115 30 -45 63 -145 52 -155 -6 -5 -548 -52
-585 -50 -13 0 -9 63 7 117 46 156 217 247 377 203z"/>
<path d="M17667 3177 c-3 -12 -9 -54 -12 -92 l-7 -71 277 -33 c222 -27 279
-31 285 -21 10 15 24 159 17 167 -3 2 -113 18 -244 33 -131 16 -254 32 -274
34 -32 5 -38 3 -42 -17z"/>
</g>
</svg>
